<?xml version="1.0" encoding="UTF-8"?>
<svg id="Warstwa_1" xmlns="http://www.w3.org/2000/svg" viewBox="0 0 1000 999.84">
  <defs>
    <style>
      .cls-1 {
        fill: #fff;
      }
    </style>
  </defs>
  <path class="cls-1" d="M999.97,495.01c-.03-1.62-.05-3.26-.08-4.91l-.03.03c0-.85-.03-1.7-.03-2.55l-.08-2.47c-.03-1.32-.08-2.63-.14-3.92-.05-.91-.08-1.81-.14-2.69,0-.96-.03-1.92-.08-2.85,0-.16,0-.33-.03-.47-.03-.8-.08-1.59-.16-2.36-.05-1.43-.14-2.85-.22-4.28-.03-.47-.05-.96-.08-1.45-.08-1.4-.16-2.83-.3-4.25-.03-.49-.05-.99-.11-1.48-.14-1.92-.3-3.84-.47-5.76-.16-1.92-.33-3.84-.52-5.76-.05-.49-.11-.99-.16-1.54-.44-4.09-.88-8.15-1.43-12.18-.19-1.51-.38-3.05-.58-4.55-.88-6.45-1.89-12.87-2.99-19.23-.05-.38-.14-.74-.19-1.12-2.19-12.24-4.83-24.33-7.9-36.27-.44-1.73-.88-3.43-1.34-5.16-.14-.47-.25-.96-.38-1.43-.47-1.7-.96-3.43-1.43-5.13-.03-.16-.08-.3-.14-.47-.55-1.89-1.1-3.79-1.65-5.65-.91-3.02-1.81-6.01-2.77-9-.11-.27-.19-.52-.27-.8-.14-.47-.3-.96-.44-1.43t-.03-.05c-16.3-50.37-40.33-97.23-70.78-139.15-4.94-6.8-10.04-13.47-15.28-20.03-.08-.11-.19-.25-.3-.36-2.44-3.02-4.94-6.04-7.46-9.03-1.29-1.54-2.61-3.05-3.9-4.55-1.02-1.18-2.03-2.33-3.07-3.51-1.4-1.59-2.8-3.16-4.22-4.72-2.91-3.21-5.87-6.39-8.86-9.52-3.18-3.35-6.42-6.64-9.71-9.9-2.3-2.28-4.61-4.53-6.94-6.75-4.66-4.44-9.38-8.81-14.18-13.06-2.39-2.11-4.8-4.22-7.24-6.28-1.92-1.65-3.84-3.26-5.79-4.86-.82-.69-1.62-1.34-2.44-1.98-1.67-1.4-3.37-2.77-5.08-4.09-2.39-1.95-4.8-3.81-7.22-5.62-1.37-1.07-2.77-2.11-4.17-3.15-3.13-2.36-6.31-4.66-9.52-6.97-.14-.11-.27-.22-.41-.3-1.56-1.1-3.13-2.19-4.69-3.29-1.65-1.15-3.29-2.28-4.97-3.37-1.67-1.12-3.35-2.25-5.02-3.35-1.67-1.1-3.35-2.19-5.05-3.29-1.67-1.1-3.37-2.17-5.08-3.21-1.73-1.07-3.43-2.11-5.16-3.16-3.43-2.14-6.89-4.17-10.37-6.15-1.76-1.02-3.51-2-5.27-2.99-1.76-1.02-3.51-1.98-5.29-2.91-1.32-.74-2.63-1.45-3.98-2.14-.77-.44-1.54-.82-2.3-1.21-1.37-.74-2.74-1.45-4.12-2.14-2.33-1.21-4.66-2.39-7.02-3.54-5.57-2.74-11.22-5.4-16.9-7.93-5.27-2.36-10.56-4.61-15.91-6.75-1.54-.63-3.1-1.26-4.69-1.87-1.32-.52-2.66-1.04-4.01-1.54-.74-.3-1.48-.6-2.22-.88-.41-.16-.82-.3-1.23-.47-1.84-.69-3.68-1.37-5.54-2.03-1.51-.55-3.02-1.07-4.55-1.59-2.96-1.07-5.95-2.09-8.97-3.05-.91-.3-1.81-.6-2.72-.91-.74-.25-1.45-.47-2.19-.69-10.73-3.4-21.59-6.45-32.54-9.11-2.06-.52-4.12-.99-6.17-1.45-1.67-.41-3.37-.77-5.08-1.15-2.03-.44-4.06-.88-6.12-1.29-1.65-.36-3.29-.69-4.94-.99-1.18-.25-2.39-.47-3.59-.69-2.19-.44-4.42-.82-6.61-1.21-3.7-.66-7.43-1.34-11.19-1.87-1.81-.3-3.54-.52-5.35-.8-5.35-.74-10.7-1.43-16.08-2.03-2.52-.25-4.97-.55-7.49-.77-2.52-.19-4.97-.44-7.49-.66-2.09-.16-4.14-.33-6.23-.44-6.83-.44-13.72-.8-20.6-.96-2.03-.05-4.12-.11-6.17-.14h-8.7v-.03h-5.13c-.58,0-1.15.03-1.73.03h-.96c-.99,0-1.98.03-2.94.05-.99,0-1.98.03-2.96.05-8.86.22-17.64.66-26.39,1.43C327,12.21,205.4,73.72,119.15,173.94l-10.81,12.57c-1.65,1.92-2.55,4.06-2.85,6.23-.91,6.36,3.4,12.89,10.32,13.88h146.45v.14h104.83v-.11h131.08v.22h16.35c1.26-.05,2.52-.05,3.76-.05s2.52,0,3.76.05c160.14,2.03,289.33,132.46,289.33,293.06s-127.16,289-285.54,293c-2.52.11-5.05.11-7.57.11H130.23c-6.8.44-11.33,6.23-11.33,12.32,0,2.63.88,5.35,2.77,7.71,38.85,48.53,86.53,89.66,140.36,120.74,54.16,31.3,113.96,51.96,175.75,61.04,4.36.66,8.81,1.21,13.22,1.76,7.96.99,15.99,1.76,24.06,2.25,2.66.16,5.32.33,8.01.49.91.03,1.76.08,2.63.14v.08c.14,0,.27.03.41,0h1.15c.6.03,1.21.05,1.81.08.27.03.55.03.82.03.6.03,1.23.05,1.84.08.82,0,1.62.03,2.44.03.38.03.77.05,1.15.03h.38c1.43.03,2.85.03,4.28.03,4.69,0,9.38-.05,14.05-.19,1.04-.03,2.06-.05,3.1-.11.55,0,1.1-.03,1.67-.05.03,0,.08.03.11,0,.25,0,.49-.03.74-.03,4.47-.19,8.97-.44,13.42-.74,2.09-.16,4.2-.27,6.34-.44,1.21-.08,2.39-.16,3.54-.25.11-.03.19-.03.27-.03,1.21-.11,2.41-.25,3.62-.38.91-.08,1.78-.16,2.69-.25,1.56-.16,3.13-.33,4.75-.49.22-.03.41-.05.63-.08,4.69-.55,9.44-1.18,14.07-1.78.49-.08.99-.14,1.48-.16.14-.03.3-.05.44-.05,1.62-.27,3.18-.49,4.75-.74,3.29-.49,6.5-1.04,9.74-1.59,2.36-.36,4.69-.82,7.05-1.23,6.45-1.21,12.84-2.55,19.18-4.01,6.15-1.4,12.26-2.88,18.35-4.5,2.03-.55,4.03-1.1,6.06-1.67,4.66-1.29,9.3-2.66,13.91-4.12,3.37-1.04,6.75-2.14,10.1-3.26,1.07-.36,2.14-.71,3.18-1.1,1.87-.63,3.73-1.26,5.57-1.95,1.18-.41,2.36-.82,3.51-1.26,3.7-1.34,7.38-2.72,11.03-4.2,2.77-1.1,5.54-2.22,8.31-3.35,0-.03.03-.03.03-.03,2.28-.93,4.53-1.89,6.78-2.88.49-.22.96-.41,1.45-.63.03,0,.05-.03.08-.03.08-.03.19-.08.27-.11,5.13-2.22,10.21-4.58,15.25-7h.03c3.62-1.73,7.22-3.48,10.81-5.35,2.22-1.1,4.42-2.22,6.61-3.4,1.87-.96,3.7-1.92,5.51-2.96,65.87-35.8,122.77-85.98,166.53-146.34,44.44-61.26,75.34-133.03,88.23-210.86.3-1.76.58-3.54.85-5.29.41-2.74.82-5.49,1.21-8.23.33-2.47.66-4.94.96-7.41.22-1.73.44-3.48.6-5.24.25-2.22.49-4.44.71-6.69.16-1.81.33-3.62.49-5.43.16-1.84.3-3.68.44-5.46.14-1.73.27-3.43.38-5.16.03-.44.05-.88.08-1.32.08-1.62.16-3.26.25-4.88.14-2.06.25-4.09.33-6.15.08-1.84.14-3.65.19-5.49.03-.25.03-.47.03-.71.03-1.29.08-2.55.08-3.87.03-.44.03-.91.03-1.37.03-1.59.05-3.21.08-4.8.03-1.62.03-3.21.03-4.83s0-3.24-.03-4.88Z"/>
  <circle class="cls-1" cx="538.69" cy="499.92" r="151.95"/>
  <path class="cls-1" d="M201.65,646.22v-.02c51.52-3.8,93.54-45.31,97.88-96.78,4.99-58.95-38.48-109.07-94.92-114.9-.35-.05-.68-.05-1.03-.05h-5.9c-6.48,0-10.56-7.02-7.3-12.66l38.43-66.53c3.24-5.62-.82-12.66-7.3-12.66H31.18c-3.52,0-6.72,2.17-7.93,5.48C7.79,389.81,0,433.63,0,478.8c0,22.71,2.03,45.5,6.02,67.65.72,4.01,4.22,6.95,8.3,6.95h65.93c3.96,0,7.37,2.78,8.23,6.65.44,1.94.96,4.06,1.61,6.32,7.88,27.68,24.39,44.82,27.59,48.09,21.01,21.52,51.07,34.19,83.98,31.76Z"/>
</svg>